<svg width="58" height="58" viewBox="0 0 58 58" fill="none" xmlns="http://www.w3.org/2000/svg">
    <path fill-rule="evenodd" clip-rule="evenodd"
        d="M28.9715 9.14901C25.2475 9.14984 21.5991 10.1997 18.4442 12.1782C15.2893 14.1568 12.7555 16.984 11.1332 20.3361C9.51086 23.6881 8.86559 27.4294 9.27131 31.1312C9.67702 34.8331 11.1173 38.3457 13.4272 41.2668C15.737 44.1879 18.823 46.3993 22.3316 47.6475C25.8401 48.8958 29.6293 49.1304 33.2651 48.3246C36.9009 47.5188 40.2362 45.7052 42.8888 43.0914C45.5414 40.4777 47.4041 37.1696 48.2635 33.5461H32.0212C30.8079 33.5461 29.6444 33.0641 28.7865 32.2063C27.9287 31.3484 27.4467 30.1848 27.4467 28.9716C27.4467 27.7584 27.9287 26.5949 28.7865 25.737C29.6444 24.8791 30.8079 24.3972 32.0212 24.3972H53.3686C54.5818 24.3972 55.7453 24.8791 56.6032 25.737C57.4611 26.5949 57.943 27.7584 57.943 28.9716C57.943 35.6709 55.6213 42.1632 51.3731 47.3432C47.1249 52.5233 41.2128 56.071 34.6431 57.3825C28.0734 58.694 21.2523 57.6882 15.3408 54.5362C9.42929 51.3843 4.79282 46.2811 2.2206 40.0953C-0.351611 33.9095 -0.700583 27.0234 1.23309 20.6093C3.16677 14.1951 7.26357 8.64931 12.8261 4.91589C18.3887 1.18248 25.0732 -0.507793 31.7418 0.132796C38.4104 0.773384 44.6509 3.70524 49.401 8.4293C49.8269 8.85301 50.1652 9.35646 50.3966 9.91091C50.6279 10.4654 50.7478 11.0599 50.7493 11.6607C50.7509 12.2615 50.6341 12.8567 50.4056 13.4123C50.1772 13.968 49.8415 14.4732 49.4178 14.8991C48.9941 15.325 48.4906 15.6633 47.9362 15.8946C47.3817 16.126 46.7872 16.2459 46.1864 16.2474C44.9731 16.2506 43.8082 15.7716 42.948 14.9159C39.2378 11.2169 34.2106 9.14262 28.9715 9.14901Z"
        fill="white" />
</svg>
