<svg width="18" height="30" viewBox="0 0 18 30" fill="none" xmlns="http://www.w3.org/2000/svg">
    <path
        d="M6.57034 15L17.2471 25.4933C17.749 25.9865 18 26.6144 18 27.3767C18 28.139 17.749 28.7668 17.2471 29.2601C16.7452 29.7534 16.1065 30 15.3308 30C14.5551 30 13.9163 29.7534 13.4144 29.2601L0.821293 16.8834C0.273765 16.3453 0 15.7175 0 15C0 14.2825 0.273765 13.6547 0.821293 13.1166L13.4144 0.739915C13.9163 0.246642 14.5551 7.73096e-07 15.3308 7.73096e-07C16.1065 7.73096e-07 16.7452 0.246642 17.2471 0.739915C17.749 1.23319 18 1.86099 18 2.62332C18 3.38565 17.749 4.01346 17.2471 4.50673L6.57034 15Z"
        fill="white" />
</svg>
