<svg width="26" height="30" viewBox="0 0 26 30" fill="none" xmlns="http://www.w3.org/2000/svg">
    <path
        d="M22.1919 3.86045C24.5786 6.27997 25.9436 9.54575 25.9983 12.9672C26.053 16.3887 24.7932 19.6976 22.4852 22.1943L22.1919 22.5018L16.0633 28.7142C15.2857 29.5021 14.2417 29.9609 13.143 29.9976C12.0442 30.0343 10.9727 29.6462 10.1456 28.9119L9.9376 28.7142L3.80754 22.5004C1.36961 20.0286 0 16.6761 0 13.1804C0 9.68475 1.36961 6.33226 3.80754 3.86045C6.24546 1.38865 9.55199 0 12.9997 0C16.4475 0 19.754 1.38865 22.1919 3.86045ZM12.9997 8.78697C12.4307 8.78697 11.8672 8.90061 11.3415 9.1214C10.8158 9.34219 10.3381 9.66581 9.93569 10.0738C9.53331 10.4818 9.21413 10.9661 8.99637 11.4991C8.7786 12.0322 8.66652 12.6035 8.66652 13.1804C8.66652 13.7574 8.7786 14.3287 8.99637 14.8617C9.21413 15.3948 9.53331 15.8791 9.93569 16.2871C10.3381 16.695 10.8158 17.0186 11.3415 17.2394C11.8672 17.4602 12.4307 17.5739 12.9997 17.5739C14.149 17.5739 15.2512 17.111 16.0638 16.2871C16.8764 15.4631 17.333 14.3456 17.333 13.1804C17.333 12.0152 16.8764 10.8977 16.0638 10.0738C15.2512 9.24985 14.149 8.78697 12.9997 8.78697Z"
        fill="white" />
</svg>
