<svg width="30" height="30" viewBox="0 0 30 30" fill="none" xmlns="http://www.w3.org/2000/svg">
    <path
        d="M15 30C12.925 30 10.975 29.606 9.15 28.818C7.325 28.03 5.7375 26.9615 4.3875 25.6125C3.0375 24.2635 1.969 22.676 1.182 20.85C0.395002 19.024 0.0010019 17.074 1.89873e-06 15C-0.000998101 12.926 0.393002 10.976 1.182 9.15C1.971 7.324 3.0395 5.7365 4.3875 4.3875C5.7355 3.0385 7.323 1.97 9.15 1.182C10.977 0.394 12.927 0 15 0C17.073 0 19.023 0.394 20.85 1.182C22.677 1.97 24.2645 3.0385 25.6125 4.3875C26.9605 5.7365 28.0295 7.324 28.8195 9.15C29.6095 10.976 30.003 12.926 30 15C29.997 17.074 29.603 19.024 28.818 20.85C28.033 22.676 26.9645 24.2635 25.6125 25.6125C24.2605 26.9615 22.673 28.0305 20.85 28.8195C19.027 29.6085 17.077 30.002 15 30ZM15 24C17.5 24 19.625 23.125 21.375 21.375C23.125 19.625 24 17.5 24 15C24 13.725 23.7625 12.5435 23.2875 11.4555C22.8125 10.3675 22.175 9.424 21.375 8.625L19.2375 10.7625C19.7875 11.3125 20.219 11.95 20.532 12.675C20.845 13.4 21.001 14.175 21 15C21 16.65 20.4125 18.0625 19.2375 19.2375C18.0625 20.4125 16.65 21 15 21C13.35 21 11.9375 20.4125 10.7625 19.2375C9.5875 18.0625 9 16.65 9 15C9 14.175 9.1565 13.4 9.4695 12.675C9.7825 11.95 10.2135 11.3125 10.7625 10.7625L8.625 8.625C7.825 9.425 7.1875 10.369 6.7125 11.457C6.2375 12.545 6 13.726 6 15C6 17.5 6.875 19.625 8.625 21.375C10.375 23.125 12.5 24 15 24ZM13.5 15H16.5V6H13.5V15Z"
        fill="white" />
</svg>
